<!--?xml version="1.0" encoding="utf-8"?-->
<!-- Generator: Adobe Illustrator 25.0.1, SVG Export Plug-In . SVG Version: 6.00 Build 0)  -->
<svg version="1.1" id="Layer_1" xmlns="http://www.w3.org/2000/svg" xmlns:xlink="http://www.w3.org/1999/xlink" x="0px" y="0px" viewBox="0 0 859.2 553" style="" xml:space="preserve">
<style type="text/css">
	.st0{fill:#07AF4E;}
	.st1{fill:#07AF4E;}
	.trap, .triangle {
   stroke:#07AF4E;
   stroke-width:6;
	fill:rgb(7 175 78 / 10%);
   }
	
	.circle {
	fill:none;
	stroke:#07AF4E;
	stroke-dashoffset:138.5;
	stroke-dasharray:138.5;
	animation: circle_stroke 2s ease-in forwards;
		} 
	
	@keyframes circle_stroke {
	0% {
   	stroke-dashoffset: 138.5;
	}
	100% {
   	stroke-dashoffset: 0;
	  }
	}
	

	
	
	.trap {
	stroke-dashoffset:60;
	stroke-dasharray:60;
		animation:trap_stroke 2s ease-in-out forwards,  trap_fill  ease-in 3s forwards;
	
	}
	
	@keyframes trap_stroke {
	0% {
   	stroke-dashoffset: 60.5;
	}
		  
	  100% {
   	stroke-dashoffset: 0;
	  }
	}  
	
	@keyframes trap_fill {
	0% {
   	fill: none;
	}
		  
	  100% {
   	fill: #07AF4E;
	  }
	}  


	.triangle {
	stroke-dashoffset:3;
	stroke-dasharray:5;
	
	animation: triangle_stroke 3s ease-in-out forwards, triangle_fill 5s ease-in forwards infinite;
	}  
	
	@keyframes triangle_stroke {
	0% {
   	stroke-dashoffset: 35.5;
	}
	100% {
   	stroke-dashoffset: 0;
	  }
	}  
	
	@keyframes triangle_fill {
	0% {
   	fill: #07AF4E;
	}
	100% {
   	fill: #07AF4E;;
	  }
	}
</style>
<g>
	<g>
		<path class="triangle gFqlvoRd_0" d="M578.1,548.5c-148.6,0-269.5-120.8-269.5-269.4S429.5,9.6,578.1,9.6v50c-121,0-219.5,98.5-219.5,219.5
			s98.5,219.5,219.5,219.5V548.5z"></path>
	</g>
	<g>
		<path class="triangle gFqlvoRd_1" d="M792.8,514.7l-36.7,33.9L595.9,376.7l0.1-0.1h-0.1v-50c73.6,0,133.5-59.9,133.5-133.5S669.5,59.6,595.9,59.6
			v-50c101.2,0,183.5,82.3,183.5,183.5c0,80.1-51.6,148.4-123.3,173.4L792.8,514.7z"></path>
	</g>
	<g>
		<g>
			<path class="triangle gFqlvoRd_2" d="M358.6,8.8h-50V198c10.7-33.8,27.8-64.7,50-91.2V8.8z"></path>
		</g>
	</g>
	<g>
		<path class="triangle gFqlvoRd_3" d="M358.6,451.3v92.6h-50V441.6L56.5,117.3v426.6h-50V8.8h50v27.1l252.1,324.3v-0.1
			C319.3,393.9,336.4,424.7,358.6,451.3z"></path>
	</g>
	<g>
		<path class="triangle gFqlvoRd_4" width="50" height="534.3" d="M804 9.2 L854 9.2 L854 543.5 L804 543.5 Z"></path>
	</g>
</g>
<style data-made-with="vivus-instant">.gFqlvoRd_0{stroke-dasharray:1636 1638;stroke-dashoffset:1637;animation:gFqlvoRd_draw_0 7200ms ease-in-out 0ms infinite,gFqlvoRd_fade 7200ms linear 0ms infinite;}.gFqlvoRd_1{stroke-dasharray:1522 1524;stroke-dashoffset:1523;animation:gFqlvoRd_draw_1 7200ms ease-in-out 0ms infinite,gFqlvoRd_fade 7200ms linear 0ms infinite;}.gFqlvoRd_2{stroke-dasharray:442 444;stroke-dashoffset:443;animation:gFqlvoRd_draw_2 7200ms ease-in-out 0ms infinite,gFqlvoRd_fade 7200ms linear 0ms infinite;}.gFqlvoRd_3{stroke-dasharray:2260 2262;stroke-dashoffset:2261;animation:gFqlvoRd_draw_3 7200ms ease-in-out 0ms infinite,gFqlvoRd_fade 7200ms linear 0ms infinite;}.gFqlvoRd_4{stroke-dasharray:1169 1171;stroke-dashoffset:1170;animation:gFqlvoRd_draw_4 7200ms ease-in-out 0ms infinite,gFqlvoRd_fade 7200ms linear 0ms infinite;}@keyframes gFqlvoRd_draw{100%{stroke-dashoffset:0;}}@keyframes gFqlvoRd_fade{0%{stroke-opacity:1;}94.44444444444444%{stroke-opacity:1;}100%{stroke-opacity:0;}}@keyframes gFqlvoRd_draw_0{11.11111111111111%{stroke-dashoffset: 1637}52.77777777777778%{ stroke-dashoffset: 0;}100%{ stroke-dashoffset: 0;}}@keyframes gFqlvoRd_draw_1{11.11111111111111%{stroke-dashoffset: 1523}52.77777777777778%{ stroke-dashoffset: 0;}100%{ stroke-dashoffset: 0;}}@keyframes gFqlvoRd_draw_2{11.11111111111111%{stroke-dashoffset: 443}52.77777777777778%{ stroke-dashoffset: 0;}100%{ stroke-dashoffset: 0;}}@keyframes gFqlvoRd_draw_3{11.11111111111111%{stroke-dashoffset: 2261}52.77777777777778%{ stroke-dashoffset: 0;}100%{ stroke-dashoffset: 0;}}@keyframes gFqlvoRd_draw_4{11.11111111111111%{stroke-dashoffset: 1170}52.77777777777778%{ stroke-dashoffset: 0;}100%{ stroke-dashoffset: 0;}}</style></svg>
